<svg xmlns="http://www.w3.org/2000/svg" width="900" height="1054" viewBox="0 0 900 1054" role="img" aria-label="WindyGI FPS against Lumen per tier"><rect x="0.0" y="0.0" width="900.0" height="1054.0" rx="10" fill="#101316"/><text x="24.0" y="36.0" font-family="Segoe UI, Helvetica Neue, Helvetica, Arial, sans-serif" font-size="20" font-weight="600" fill="#e7eaec" text-anchor="start">WindyGI FPS against Lumen</text><text x="24.0" y="58.0" font-family="Segoe UI, Helvetica Neue, Helvetica, Arial, sans-serif" font-size="13" font-weight="400" fill="#98a2ab" text-anchor="start">WindyGI FPS / Lumen FPS - 1, mean over the views, same GI tier. Right of the line: WindyGI is faster.</text><text x="278.0" y="92.0" font-family="Segoe UI, Helvetica Neue, Helvetica, Arial, sans-serif" font-size="14" font-weight="600" fill="#e7eaec" text-anchor="start">Medium</text><text x="486.7" y="92.0" font-family="Segoe UI, Helvetica Neue, Helvetica, Arial, sans-serif" font-size="14" font-weight="600" fill="#e7eaec" text-anchor="start">High</text><text x="695.3" y="92.0" font-family="Segoe UI, Helvetica Neue, Helvetica, Arial, sans-serif" font-size="14" font-weight="600" fill="#e7eaec" text-anchor="start">Epic</text><rect x="16.0" y="104.0" width="868.0" height="40.0" rx="6" fill="#171c21"/><text x="32.0" y="121.0" font-family="Segoe UI, Helvetica Neue, Helvetica, Arial, sans-serif" font-size="13" font-weight="600" fill="#e7eaec" text-anchor="start">Hardware · RX 9070 XT</text><text x="32.0" y="137.0" font-family="Segoe UI, Helvetica Neue, Helvetica, Arial, sans-serif" font-size="12" font-weight="400" fill="#98a2ab" text-anchor="start">4K · Map_RT_Daylight</text><rect x="277.5" y="110.0" width="1.0" height="28.0" rx="0" fill="#98a2ab"/><rect x="273.2" y="117.0" width="4.8" height="14.0" rx="2" fill="#ee7269"/><text x="268.2" y="129.0" font-family="Consolas, SFMono-Regular, Menlo, monospace" font-size="12" font-weight="400" fill="#e7eaec" text-anchor="end">-3 %</text><rect x="486.2" y="110.0" width="1.0" height="28.0" rx="0" fill="#98a2ab"/><rect x="486.7" y="117.0" width="20.9" height="14.0" rx="2" fill="#52c7a0"/><text x="512.6" y="129.0" font-family="Consolas, SFMono-Regular, Menlo, monospace" font-size="12" font-weight="400" fill="#e7eaec" text-anchor="start">+12 %</text><rect x="694.8" y="110.0" width="1.0" height="28.0" rx="0" fill="#98a2ab"/><rect x="695.3" y="117.0" width="57.0" height="14.0" rx="2" fill="#52c7a0"/><text x="757.4" y="129.0" font-family="Consolas, SFMono-Regular, Menlo, monospace" font-size="12" font-weight="400" fill="#e7eaec" text-anchor="start">+31 %</text><rect x="16.0" y="150.0" width="868.0" height="40.0" rx="6" fill="#171c21"/><text x="32.0" y="167.0" font-family="Segoe UI, Helvetica Neue, Helvetica, Arial, sans-serif" font-size="13" font-weight="600" fill="#e7eaec" text-anchor="start">Hardware · RX 9070 XT</text><text x="32.0" y="183.0" font-family="Segoe UI, Helvetica Neue, Helvetica, Arial, sans-serif" font-size="12" font-weight="400" fill="#98a2ab" text-anchor="start">4K · TestGIMap</text><rect x="277.5" y="156.0" width="1.0" height="28.0" rx="0" fill="#98a2ab"/><rect x="278.0" y="163.0" width="43.6" height="14.0" rx="2" fill="#52c7a0"/><text x="326.6" y="175.0" font-family="Consolas, SFMono-Regular, Menlo, monospace" font-size="12" font-weight="400" fill="#e7eaec" text-anchor="start">+24 %</text><rect x="486.2" y="156.0" width="1.0" height="28.0" rx="0" fill="#98a2ab"/><rect x="486.7" y="163.0" width="63.4" height="14.0" rx="2" fill="#52c7a0"/><text x="555.1" y="175.0" font-family="Consolas, SFMono-Regular, Menlo, monospace" font-size="12" font-weight="400" fill="#e7eaec" text-anchor="start">+35 %</text><rect x="694.8" y="156.0" width="1.0" height="28.0" rx="0" fill="#98a2ab"/><rect x="695.3" y="163.0" width="101.4" height="14.0" rx="2" fill="#52c7a0"/><text x="801.8" y="175.0" font-family="Consolas, SFMono-Regular, Menlo, monospace" font-size="12" font-weight="400" fill="#e7eaec" text-anchor="start">+56 %</text><rect x="16.0" y="196.0" width="868.0" height="40.0" rx="6" fill="#171c21"/><text x="32.0" y="213.0" font-family="Segoe UI, Helvetica Neue, Helvetica, Arial, sans-serif" font-size="13" font-weight="600" fill="#e7eaec" text-anchor="start">Hardware · RTX 5090</text><text x="32.0" y="229.0" font-family="Segoe UI, Helvetica Neue, Helvetica, Arial, sans-serif" font-size="12" font-weight="400" fill="#98a2ab" text-anchor="start">4K · Map_RT_Daylight</text><rect x="277.5" y="202.0" width="1.0" height="28.0" rx="0" fill="#98a2ab"/><rect x="278.0" y="209.0" width="15.7" height="14.0" rx="2" fill="#52c7a0"/><text x="298.7" y="221.0" font-family="Consolas, SFMono-Regular, Menlo, monospace" font-size="12" font-weight="400" fill="#e7eaec" text-anchor="start">+9 %</text><rect x="486.2" y="202.0" width="1.0" height="28.0" rx="0" fill="#98a2ab"/><rect x="486.7" y="209.0" width="22.0" height="14.0" rx="2" fill="#52c7a0"/><text x="513.7" y="221.0" font-family="Consolas, SFMono-Regular, Menlo, monospace" font-size="12" font-weight="400" fill="#e7eaec" text-anchor="start">+12 %</text><rect x="694.8" y="202.0" width="1.0" height="28.0" rx="0" fill="#98a2ab"/><rect x="695.3" y="209.0" width="49.1" height="14.0" rx="2" fill="#52c7a0"/><text x="749.5" y="221.0" font-family="Consolas, SFMono-Regular, Menlo, monospace" font-size="12" font-weight="400" fill="#e7eaec" text-anchor="start">+27 %</text><rect x="16.0" y="242.0" width="868.0" height="40.0" rx="6" fill="#171c21"/><text x="32.0" y="259.0" font-family="Segoe UI, Helvetica Neue, Helvetica, Arial, sans-serif" font-size="13" font-weight="600" fill="#e7eaec" text-anchor="start">Hardware · RTX 5090</text><text x="32.0" y="275.0" font-family="Segoe UI, Helvetica Neue, Helvetica, Arial, sans-serif" font-size="12" font-weight="400" fill="#98a2ab" text-anchor="start">4K · TestGIMap</text><rect x="277.5" y="248.0" width="1.0" height="28.0" rx="0" fill="#98a2ab"/><rect x="278.0" y="255.0" width="26.1" height="14.0" rx="2" fill="#52c7a0"/><text x="309.1" y="267.0" font-family="Consolas, SFMono-Regular, Menlo, monospace" font-size="12" font-weight="400" fill="#e7eaec" text-anchor="start">+14 %</text><rect x="486.2" y="248.0" width="1.0" height="28.0" rx="0" fill="#98a2ab"/><rect x="486.7" y="255.0" width="40.4" height="14.0" rx="2" fill="#52c7a0"/><text x="532.0" y="267.0" font-family="Consolas, SFMono-Regular, Menlo, monospace" font-size="12" font-weight="400" fill="#e7eaec" text-anchor="start">+22 %</text><rect x="694.8" y="248.0" width="1.0" height="28.0" rx="0" fill="#98a2ab"/><rect x="695.3" y="255.0" width="64.4" height="14.0" rx="2" fill="#52c7a0"/><text x="764.7" y="267.0" font-family="Consolas, SFMono-Regular, Menlo, monospace" font-size="12" font-weight="400" fill="#e7eaec" text-anchor="start">+36 %</text><rect x="16.0" y="288.0" width="868.0" height="40.0" rx="6" fill="#171c21"/><text x="32.0" y="305.0" font-family="Segoe UI, Helvetica Neue, Helvetica, Arial, sans-serif" font-size="13" font-weight="600" fill="#e7eaec" text-anchor="start">Hardware · RTX 3070</text><text x="32.0" y="321.0" font-family="Segoe UI, Helvetica Neue, Helvetica, Arial, sans-serif" font-size="12" font-weight="400" fill="#98a2ab" text-anchor="start">4K · Map_RT_Daylight</text><rect x="277.5" y="294.0" width="1.0" height="28.0" rx="0" fill="#98a2ab"/><rect x="278.0" y="301.0" width="19.2" height="14.0" rx="2" fill="#52c7a0"/><text x="302.2" y="313.0" font-family="Consolas, SFMono-Regular, Menlo, monospace" font-size="12" font-weight="400" fill="#e7eaec" text-anchor="start">+11 %</text><rect x="486.2" y="294.0" width="1.0" height="28.0" rx="0" fill="#98a2ab"/><rect x="486.7" y="301.0" width="32.9" height="14.0" rx="2" fill="#52c7a0"/><text x="524.5" y="313.0" font-family="Consolas, SFMono-Regular, Menlo, monospace" font-size="12" font-weight="400" fill="#e7eaec" text-anchor="start">+18 %</text><rect x="694.8" y="294.0" width="1.0" height="28.0" rx="0" fill="#98a2ab"/><rect x="695.3" y="301.0" width="59.2" height="14.0" rx="2" fill="#52c7a0"/><text x="759.5" y="313.0" font-family="Consolas, SFMono-Regular, Menlo, monospace" font-size="12" font-weight="400" fill="#e7eaec" text-anchor="start">+33 %</text><rect x="16.0" y="334.0" width="868.0" height="40.0" rx="6" fill="#171c21"/><text x="32.0" y="351.0" font-family="Segoe UI, Helvetica Neue, Helvetica, Arial, sans-serif" font-size="13" font-weight="600" fill="#e7eaec" text-anchor="start">Hardware · RTX 3070</text><text x="32.0" y="367.0" font-family="Segoe UI, Helvetica Neue, Helvetica, Arial, sans-serif" font-size="12" font-weight="400" fill="#98a2ab" text-anchor="start">4K · TestGIMap</text><rect x="277.5" y="340.0" width="1.0" height="28.0" rx="0" fill="#98a2ab"/><rect x="278.0" y="347.0" width="34.7" height="14.0" rx="2" fill="#52c7a0"/><text x="317.7" y="359.0" font-family="Consolas, SFMono-Regular, Menlo, monospace" font-size="12" font-weight="400" fill="#e7eaec" text-anchor="start">+19 %</text><rect x="486.2" y="340.0" width="1.0" height="28.0" rx="0" fill="#98a2ab"/><rect x="486.7" y="347.0" width="49.7" height="14.0" rx="2" fill="#52c7a0"/><text x="541.4" y="359.0" font-family="Consolas, SFMono-Regular, Menlo, monospace" font-size="12" font-weight="400" fill="#e7eaec" text-anchor="start">+27 %</text><rect x="694.8" y="340.0" width="1.0" height="28.0" rx="0" fill="#98a2ab"/><rect x="695.3" y="347.0" width="84.1" height="14.0" rx="2" fill="#52c7a0"/><text x="784.5" y="359.0" font-family="Consolas, SFMono-Regular, Menlo, monospace" font-size="12" font-weight="400" fill="#e7eaec" text-anchor="start">+46 %</text><rect x="16.0" y="380.0" width="868.0" height="40.0" rx="6" fill="#171c21"/><text x="32.0" y="397.0" font-family="Segoe UI, Helvetica Neue, Helvetica, Arial, sans-serif" font-size="13" font-weight="600" fill="#e7eaec" text-anchor="start">Hardware · RTX 2080 Ti 22 GB</text><text x="32.0" y="413.0" font-family="Segoe UI, Helvetica Neue, Helvetica, Arial, sans-serif" font-size="12" font-weight="400" fill="#98a2ab" text-anchor="start">4K · Map_RT_Daylight</text><rect x="277.5" y="386.0" width="1.0" height="28.0" rx="0" fill="#98a2ab"/><rect x="278.0" y="393.0" width="11.7" height="14.0" rx="2" fill="#52c7a0"/><text x="294.7" y="405.0" font-family="Consolas, SFMono-Regular, Menlo, monospace" font-size="12" font-weight="400" fill="#e7eaec" text-anchor="start">+6 %</text><rect x="486.2" y="386.0" width="1.0" height="28.0" rx="0" fill="#98a2ab"/><rect x="486.7" y="393.0" width="19.4" height="14.0" rx="2" fill="#52c7a0"/><text x="511.1" y="405.0" font-family="Consolas, SFMono-Regular, Menlo, monospace" font-size="12" font-weight="400" fill="#e7eaec" text-anchor="start">+11 %</text><rect x="694.8" y="386.0" width="1.0" height="28.0" rx="0" fill="#98a2ab"/><rect x="695.3" y="393.0" width="58.8" height="14.0" rx="2" fill="#52c7a0"/><text x="759.2" y="405.0" font-family="Consolas, SFMono-Regular, Menlo, monospace" font-size="12" font-weight="400" fill="#e7eaec" text-anchor="start">+32 %</text><rect x="16.0" y="426.0" width="868.0" height="40.0" rx="6" fill="#171c21"/><text x="32.0" y="443.0" font-family="Segoe UI, Helvetica Neue, Helvetica, Arial, sans-serif" font-size="13" font-weight="600" fill="#e7eaec" text-anchor="start">Hardware · RTX 2080 Ti 22 GB</text><text x="32.0" y="459.0" font-family="Segoe UI, Helvetica Neue, Helvetica, Arial, sans-serif" font-size="12" font-weight="400" fill="#98a2ab" text-anchor="start">4K · TestGIMap</text><rect x="277.5" y="432.0" width="1.0" height="28.0" rx="0" fill="#98a2ab"/><rect x="278.0" y="439.0" width="38.2" height="14.0" rx="2" fill="#52c7a0"/><text x="321.2" y="451.0" font-family="Consolas, SFMono-Regular, Menlo, monospace" font-size="12" font-weight="400" fill="#e7eaec" text-anchor="start">+21 %</text><rect x="486.2" y="432.0" width="1.0" height="28.0" rx="0" fill="#98a2ab"/><rect x="486.7" y="439.0" width="45.9" height="14.0" rx="2" fill="#52c7a0"/><text x="537.6" y="451.0" font-family="Consolas, SFMono-Regular, Menlo, monospace" font-size="12" font-weight="400" fill="#e7eaec" text-anchor="start">+25 %</text><rect x="694.8" y="432.0" width="1.0" height="28.0" rx="0" fill="#98a2ab"/><rect x="695.3" y="439.0" width="83.3" height="14.0" rx="2" fill="#52c7a0"/><text x="783.6" y="451.0" font-family="Consolas, SFMono-Regular, Menlo, monospace" font-size="12" font-weight="400" fill="#e7eaec" text-anchor="start">+46 %</text><rect x="16.0" y="472.0" width="868.0" height="40.0" rx="6" fill="#171c21"/><text x="32.0" y="489.0" font-family="Segoe UI, Helvetica Neue, Helvetica, Arial, sans-serif" font-size="13" font-weight="600" fill="#e7eaec" text-anchor="start">Hardware · Radeon 680M</text><text x="32.0" y="505.0" font-family="Segoe UI, Helvetica Neue, Helvetica, Arial, sans-serif" font-size="12" font-weight="400" fill="#98a2ab" text-anchor="start">720p · Map_RT_Daylight</text><rect x="277.5" y="478.0" width="1.0" height="28.0" rx="0" fill="#98a2ab"/><rect x="274.6" y="485.0" width="3.4" height="14.0" rx="2" fill="#ee7269"/><text x="269.6" y="497.0" font-family="Consolas, SFMono-Regular, Menlo, monospace" font-size="12" font-weight="400" fill="#e7eaec" text-anchor="end">-2 %</text><rect x="486.2" y="478.0" width="1.0" height="28.0" rx="0" fill="#98a2ab"/><rect x="486.7" y="485.0" width="5.3" height="14.0" rx="2" fill="#52c7a0"/><text x="497.0" y="497.0" font-family="Consolas, SFMono-Regular, Menlo, monospace" font-size="12" font-weight="400" fill="#e7eaec" text-anchor="start">+3 %</text><rect x="694.8" y="478.0" width="1.0" height="28.0" rx="0" fill="#98a2ab"/><rect x="695.3" y="485.0" width="19.5" height="14.0" rx="2" fill="#52c7a0"/><text x="719.8" y="497.0" font-family="Consolas, SFMono-Regular, Menlo, monospace" font-size="12" font-weight="400" fill="#e7eaec" text-anchor="start">+11 %</text><rect x="16.0" y="518.0" width="868.0" height="40.0" rx="6" fill="#171c21"/><text x="32.0" y="535.0" font-family="Segoe UI, Helvetica Neue, Helvetica, Arial, sans-serif" font-size="13" font-weight="600" fill="#e7eaec" text-anchor="start">Hardware · Radeon 680M</text><text x="32.0" y="551.0" font-family="Segoe UI, Helvetica Neue, Helvetica, Arial, sans-serif" font-size="12" font-weight="400" fill="#98a2ab" text-anchor="start">720p · TestGIMap</text><rect x="277.5" y="524.0" width="1.0" height="28.0" rx="0" fill="#98a2ab"/><rect x="278.0" y="531.0" width="25.8" height="14.0" rx="2" fill="#52c7a0"/><text x="308.8" y="543.0" font-family="Consolas, SFMono-Regular, Menlo, monospace" font-size="12" font-weight="400" fill="#e7eaec" text-anchor="start">+14 %</text><rect x="486.2" y="524.0" width="1.0" height="28.0" rx="0" fill="#98a2ab"/><rect x="486.7" y="531.0" width="18.7" height="14.0" rx="2" fill="#52c7a0"/><text x="510.4" y="543.0" font-family="Consolas, SFMono-Regular, Menlo, monospace" font-size="12" font-weight="400" fill="#e7eaec" text-anchor="start">+10 %</text><rect x="694.8" y="524.0" width="1.0" height="28.0" rx="0" fill="#98a2ab"/><rect x="695.3" y="531.0" width="70.9" height="14.0" rx="2" fill="#52c7a0"/><text x="771.3" y="543.0" font-family="Consolas, SFMono-Regular, Menlo, monospace" font-size="12" font-weight="400" fill="#e7eaec" text-anchor="start">+39 %</text><rect x="16.0" y="564.0" width="868.0" height="40.0" rx="6" fill="#171c21"/><text x="32.0" y="581.0" font-family="Segoe UI, Helvetica Neue, Helvetica, Arial, sans-serif" font-size="13" font-weight="600" fill="#e7eaec" text-anchor="start">Software · RX 9070 XT</text><text x="32.0" y="597.0" font-family="Segoe UI, Helvetica Neue, Helvetica, Arial, sans-serif" font-size="12" font-weight="400" fill="#98a2ab" text-anchor="start">4K · Map_RT_Daylight</text><rect x="277.5" y="570.0" width="1.0" height="28.0" rx="0" fill="#98a2ab"/><rect x="278.0" y="577.0" width="5.1" height="14.0" rx="2" fill="#52c7a0"/><text x="288.1" y="589.0" font-family="Consolas, SFMono-Regular, Menlo, monospace" font-size="12" font-weight="400" fill="#e7eaec" text-anchor="start">+3 %</text><rect x="486.2" y="570.0" width="1.0" height="28.0" rx="0" fill="#98a2ab"/><rect x="486.7" y="577.0" width="26.8" height="14.0" rx="2" fill="#52c7a0"/><text x="518.5" y="589.0" font-family="Consolas, SFMono-Regular, Menlo, monospace" font-size="12" font-weight="400" fill="#e7eaec" text-anchor="start">+15 %</text><rect x="694.8" y="570.0" width="1.0" height="28.0" rx="0" fill="#98a2ab"/><rect x="695.3" y="577.0" width="58.2" height="14.0" rx="2" fill="#52c7a0"/><text x="758.5" y="589.0" font-family="Consolas, SFMono-Regular, Menlo, monospace" font-size="12" font-weight="400" fill="#e7eaec" text-anchor="start">+32 %</text><rect x="16.0" y="610.0" width="868.0" height="40.0" rx="6" fill="#171c21"/><text x="32.0" y="627.0" font-family="Segoe UI, Helvetica Neue, Helvetica, Arial, sans-serif" font-size="13" font-weight="600" fill="#e7eaec" text-anchor="start">Software · RX 9070 XT</text><text x="32.0" y="643.0" font-family="Segoe UI, Helvetica Neue, Helvetica, Arial, sans-serif" font-size="12" font-weight="400" fill="#98a2ab" text-anchor="start">4K · TestGIMap</text><rect x="277.5" y="616.0" width="1.0" height="28.0" rx="0" fill="#98a2ab"/><rect x="278.0" y="623.0" width="33.9" height="14.0" rx="2" fill="#52c7a0"/><text x="316.9" y="635.0" font-family="Consolas, SFMono-Regular, Menlo, monospace" font-size="12" font-weight="400" fill="#e7eaec" text-anchor="start">+19 %</text><rect x="486.2" y="616.0" width="1.0" height="28.0" rx="0" fill="#98a2ab"/><rect x="486.7" y="623.0" width="62.8" height="14.0" rx="2" fill="#52c7a0"/><text x="554.5" y="635.0" font-family="Consolas, SFMono-Regular, Menlo, monospace" font-size="12" font-weight="400" fill="#e7eaec" text-anchor="start">+35 %</text><rect x="694.8" y="616.0" width="1.0" height="28.0" rx="0" fill="#98a2ab"/><rect x="695.3" y="623.0" width="91.4" height="14.0" rx="2" fill="#52c7a0"/><text x="791.8" y="635.0" font-family="Consolas, SFMono-Regular, Menlo, monospace" font-size="12" font-weight="400" fill="#e7eaec" text-anchor="start">+50 %</text><rect x="16.0" y="656.0" width="868.0" height="40.0" rx="6" fill="#171c21"/><text x="32.0" y="673.0" font-family="Segoe UI, Helvetica Neue, Helvetica, Arial, sans-serif" font-size="13" font-weight="600" fill="#e7eaec" text-anchor="start">Software · RTX 5090</text><text x="32.0" y="689.0" font-family="Segoe UI, Helvetica Neue, Helvetica, Arial, sans-serif" font-size="12" font-weight="400" fill="#98a2ab" text-anchor="start">4K · Map_RT_Daylight</text><rect x="277.5" y="662.0" width="1.0" height="28.0" rx="0" fill="#98a2ab"/><rect x="278.0" y="669.0" width="28.3" height="14.0" rx="2" fill="#52c7a0"/><text x="311.3" y="681.0" font-family="Consolas, SFMono-Regular, Menlo, monospace" font-size="12" font-weight="400" fill="#e7eaec" text-anchor="start">+16 %</text><rect x="486.2" y="662.0" width="1.0" height="28.0" rx="0" fill="#98a2ab"/><rect x="486.7" y="669.0" width="45.8" height="14.0" rx="2" fill="#52c7a0"/><text x="537.5" y="681.0" font-family="Consolas, SFMono-Regular, Menlo, monospace" font-size="12" font-weight="400" fill="#e7eaec" text-anchor="start">+25 %</text><rect x="694.8" y="662.0" width="1.0" height="28.0" rx="0" fill="#98a2ab"/><rect x="695.3" y="669.0" width="72.9" height="14.0" rx="2" fill="#52c7a0"/><text x="773.2" y="681.0" font-family="Consolas, SFMono-Regular, Menlo, monospace" font-size="12" font-weight="400" fill="#e7eaec" text-anchor="start">+40 %</text><rect x="16.0" y="702.0" width="868.0" height="40.0" rx="6" fill="#171c21"/><text x="32.0" y="719.0" font-family="Segoe UI, Helvetica Neue, Helvetica, Arial, sans-serif" font-size="13" font-weight="600" fill="#e7eaec" text-anchor="start">Software · RTX 5090</text><text x="32.0" y="735.0" font-family="Segoe UI, Helvetica Neue, Helvetica, Arial, sans-serif" font-size="12" font-weight="400" fill="#98a2ab" text-anchor="start">4K · TestGIMap</text><rect x="277.5" y="708.0" width="1.0" height="28.0" rx="0" fill="#98a2ab"/><rect x="278.0" y="715.0" width="17.2" height="14.0" rx="2" fill="#52c7a0"/><text x="300.2" y="727.0" font-family="Consolas, SFMono-Regular, Menlo, monospace" font-size="12" font-weight="400" fill="#e7eaec" text-anchor="start">+10 %</text><rect x="486.2" y="708.0" width="1.0" height="28.0" rx="0" fill="#98a2ab"/><rect x="486.7" y="715.0" width="39.1" height="14.0" rx="2" fill="#52c7a0"/><text x="530.8" y="727.0" font-family="Consolas, SFMono-Regular, Menlo, monospace" font-size="12" font-weight="400" fill="#e7eaec" text-anchor="start">+22 %</text><rect x="694.8" y="708.0" width="1.0" height="28.0" rx="0" fill="#98a2ab"/><rect x="695.3" y="715.0" width="60.2" height="14.0" rx="2" fill="#52c7a0"/><text x="760.5" y="727.0" font-family="Consolas, SFMono-Regular, Menlo, monospace" font-size="12" font-weight="400" fill="#e7eaec" text-anchor="start">+33 %</text><rect x="16.0" y="748.0" width="868.0" height="40.0" rx="6" fill="#171c21"/><text x="32.0" y="765.0" font-family="Segoe UI, Helvetica Neue, Helvetica, Arial, sans-serif" font-size="13" font-weight="600" fill="#e7eaec" text-anchor="start">Software · RTX 2080 Ti 22 GB</text><text x="32.0" y="781.0" font-family="Segoe UI, Helvetica Neue, Helvetica, Arial, sans-serif" font-size="12" font-weight="400" fill="#98a2ab" text-anchor="start">4K · Map_RT_Daylight</text><rect x="277.5" y="754.0" width="1.0" height="28.0" rx="0" fill="#98a2ab"/><rect x="277.4" y="761.0" width="0.6" height="14.0" rx="2" fill="#ee7269"/><text x="272.4" y="773.0" font-family="Consolas, SFMono-Regular, Menlo, monospace" font-size="12" font-weight="400" fill="#e7eaec" text-anchor="end">-0 %</text><rect x="486.2" y="754.0" width="1.0" height="28.0" rx="0" fill="#98a2ab"/><rect x="486.7" y="761.0" width="33.5" height="14.0" rx="2" fill="#52c7a0"/><text x="525.1" y="773.0" font-family="Consolas, SFMono-Regular, Menlo, monospace" font-size="12" font-weight="400" fill="#e7eaec" text-anchor="start">+18 %</text><rect x="694.8" y="754.0" width="1.0" height="28.0" rx="0" fill="#98a2ab"/><rect x="695.3" y="761.0" width="89.7" height="14.0" rx="2" fill="#52c7a0"/><text x="790.1" y="773.0" font-family="Consolas, SFMono-Regular, Menlo, monospace" font-size="12" font-weight="400" fill="#e7eaec" text-anchor="start">+50 %</text><rect x="16.0" y="794.0" width="868.0" height="40.0" rx="6" fill="#171c21"/><text x="32.0" y="811.0" font-family="Segoe UI, Helvetica Neue, Helvetica, Arial, sans-serif" font-size="13" font-weight="600" fill="#e7eaec" text-anchor="start">Software · RTX 2080 Ti 22 GB</text><text x="32.0" y="827.0" font-family="Segoe UI, Helvetica Neue, Helvetica, Arial, sans-serif" font-size="12" font-weight="400" fill="#98a2ab" text-anchor="start">4K · TestGIMap</text><rect x="277.5" y="800.0" width="1.0" height="28.0" rx="0" fill="#98a2ab"/><rect x="278.0" y="807.0" width="11.6" height="14.0" rx="2" fill="#52c7a0"/><text x="294.6" y="819.0" font-family="Consolas, SFMono-Regular, Menlo, monospace" font-size="12" font-weight="400" fill="#e7eaec" text-anchor="start">+6 %</text><rect x="486.2" y="800.0" width="1.0" height="28.0" rx="0" fill="#98a2ab"/><rect x="486.7" y="807.0" width="47.3" height="14.0" rx="2" fill="#52c7a0"/><text x="539.0" y="819.0" font-family="Consolas, SFMono-Regular, Menlo, monospace" font-size="12" font-weight="400" fill="#e7eaec" text-anchor="start">+26 %</text><rect x="694.8" y="800.0" width="1.0" height="28.0" rx="0" fill="#98a2ab"/><rect x="695.3" y="807.0" width="101.2" height="14.0" rx="2" fill="#52c7a0"/><text x="801.6" y="819.0" font-family="Consolas, SFMono-Regular, Menlo, monospace" font-size="12" font-weight="400" fill="#e7eaec" text-anchor="start">+56 %</text><rect x="16.0" y="840.0" width="868.0" height="40.0" rx="6" fill="#171c21"/><text x="32.0" y="857.0" font-family="Segoe UI, Helvetica Neue, Helvetica, Arial, sans-serif" font-size="13" font-weight="600" fill="#e7eaec" text-anchor="start">Software · RTX 3070</text><text x="32.0" y="873.0" font-family="Segoe UI, Helvetica Neue, Helvetica, Arial, sans-serif" font-size="12" font-weight="400" fill="#98a2ab" text-anchor="start">4K · Map_RT_Daylight</text><rect x="277.5" y="846.0" width="1.0" height="28.0" rx="0" fill="#98a2ab"/><rect x="276.8" y="853.0" width="1.2" height="14.0" rx="2" fill="#ee7269"/><text x="271.8" y="865.0" font-family="Consolas, SFMono-Regular, Menlo, monospace" font-size="12" font-weight="400" fill="#e7eaec" text-anchor="end">-1 %</text><rect x="486.2" y="846.0" width="1.0" height="28.0" rx="0" fill="#98a2ab"/><rect x="486.7" y="853.0" width="25.9" height="14.0" rx="2" fill="#52c7a0"/><text x="517.6" y="865.0" font-family="Consolas, SFMono-Regular, Menlo, monospace" font-size="12" font-weight="400" fill="#e7eaec" text-anchor="start">+14 %</text><rect x="694.8" y="846.0" width="1.0" height="28.0" rx="0" fill="#98a2ab"/><rect x="695.3" y="853.0" width="84.8" height="14.0" rx="2" fill="#52c7a0"/><text x="785.1" y="865.0" font-family="Consolas, SFMono-Regular, Menlo, monospace" font-size="12" font-weight="400" fill="#e7eaec" text-anchor="start">+47 %</text><rect x="16.0" y="886.0" width="868.0" height="40.0" rx="6" fill="#171c21"/><text x="32.0" y="903.0" font-family="Segoe UI, Helvetica Neue, Helvetica, Arial, sans-serif" font-size="13" font-weight="600" fill="#e7eaec" text-anchor="start">Software · RTX 3070</text><text x="32.0" y="919.0" font-family="Segoe UI, Helvetica Neue, Helvetica, Arial, sans-serif" font-size="12" font-weight="400" fill="#98a2ab" text-anchor="start">4K · TestGIMap</text><rect x="277.5" y="892.0" width="1.0" height="28.0" rx="0" fill="#98a2ab"/><rect x="278.0" y="899.0" width="4.2" height="14.0" rx="2" fill="#52c7a0"/><text x="287.2" y="911.0" font-family="Consolas, SFMono-Regular, Menlo, monospace" font-size="12" font-weight="400" fill="#e7eaec" text-anchor="start">+2 %</text><rect x="486.2" y="892.0" width="1.0" height="28.0" rx="0" fill="#98a2ab"/><rect x="486.7" y="899.0" width="47.7" height="14.0" rx="2" fill="#52c7a0"/><text x="539.3" y="911.0" font-family="Consolas, SFMono-Regular, Menlo, monospace" font-size="12" font-weight="400" fill="#e7eaec" text-anchor="start">+26 %</text><rect x="694.8" y="892.0" width="1.0" height="28.0" rx="0" fill="#98a2ab"/><rect x="695.3" y="899.0" width="98.0" height="14.0" rx="2" fill="#52c7a0"/><text x="798.3" y="911.0" font-family="Consolas, SFMono-Regular, Menlo, monospace" font-size="12" font-weight="400" fill="#e7eaec" text-anchor="start">+54 %</text><rect x="16.0" y="932.0" width="868.0" height="40.0" rx="6" fill="#171c21"/><text x="32.0" y="949.0" font-family="Segoe UI, Helvetica Neue, Helvetica, Arial, sans-serif" font-size="13" font-weight="600" fill="#e7eaec" text-anchor="start">Software · Radeon 680M</text><text x="32.0" y="965.0" font-family="Segoe UI, Helvetica Neue, Helvetica, Arial, sans-serif" font-size="12" font-weight="400" fill="#98a2ab" text-anchor="start">720p · Map_RT_Daylight</text><rect x="277.5" y="938.0" width="1.0" height="28.0" rx="0" fill="#98a2ab"/><rect x="278.0" y="945.0" width="16.8" height="14.0" rx="2" fill="#52c7a0"/><text x="299.8" y="957.0" font-family="Consolas, SFMono-Regular, Menlo, monospace" font-size="12" font-weight="400" fill="#e7eaec" text-anchor="start">+9 %</text><rect x="486.2" y="938.0" width="1.0" height="28.0" rx="0" fill="#98a2ab"/><rect x="486.7" y="945.0" width="33.6" height="14.0" rx="2" fill="#52c7a0"/><text x="525.3" y="957.0" font-family="Consolas, SFMono-Regular, Menlo, monospace" font-size="12" font-weight="400" fill="#e7eaec" text-anchor="start">+19 %</text><rect x="694.8" y="938.0" width="1.0" height="28.0" rx="0" fill="#98a2ab"/><rect x="695.3" y="945.0" width="75.4" height="14.0" rx="2" fill="#52c7a0"/><text x="775.7" y="957.0" font-family="Consolas, SFMono-Regular, Menlo, monospace" font-size="12" font-weight="400" fill="#e7eaec" text-anchor="start">+42 %</text><rect x="16.0" y="978.0" width="868.0" height="40.0" rx="6" fill="#171c21"/><text x="32.0" y="995.0" font-family="Segoe UI, Helvetica Neue, Helvetica, Arial, sans-serif" font-size="13" font-weight="600" fill="#e7eaec" text-anchor="start">Software · Radeon 680M</text><text x="32.0" y="1011.0" font-family="Segoe UI, Helvetica Neue, Helvetica, Arial, sans-serif" font-size="12" font-weight="400" fill="#98a2ab" text-anchor="start">720p · TestGIMap</text><rect x="277.5" y="984.0" width="1.0" height="28.0" rx="0" fill="#98a2ab"/><rect x="278.0" y="991.0" width="22.9" height="14.0" rx="2" fill="#52c7a0"/><text x="305.9" y="1003.0" font-family="Consolas, SFMono-Regular, Menlo, monospace" font-size="12" font-weight="400" fill="#e7eaec" text-anchor="start">+13 %</text><rect x="486.2" y="984.0" width="1.0" height="28.0" rx="0" fill="#98a2ab"/><rect x="486.7" y="991.0" width="44.7" height="14.0" rx="2" fill="#52c7a0"/><text x="536.4" y="1003.0" font-family="Consolas, SFMono-Regular, Menlo, monospace" font-size="12" font-weight="400" fill="#e7eaec" text-anchor="start">+25 %</text><rect x="694.8" y="984.0" width="1.0" height="28.0" rx="0" fill="#98a2ab"/><rect x="695.3" y="991.0" width="94.6" height="14.0" rx="2" fill="#52c7a0"/><text x="794.9" y="1003.0" font-family="Consolas, SFMono-Regular, Menlo, monospace" font-size="12" font-weight="400" fill="#e7eaec" text-anchor="start">+52 %</text><text x="24.0" y="1038.0" font-family="Segoe UI, Helvetica Neue, Helvetica, Arial, sans-serif" font-size="11" font-weight="400" fill="#98a2ab" text-anchor="start">Source: data/summary.json, built from the sheets.</text></svg>
